<svg width="20" height="20" viewBox="0 0 20 20" fill="none" xmlns="http://www.w3.org/2000/svg">
<path d="M18.1442 13.8671C18.3382 14.053 18.3382 14.3631 18.1442 14.549L14.1587 18.3687C14.0708 18.453 13.9537 18.5 13.832 18.5H11.5091C11.2483 18.5 11.0369 18.2886 11.0369 18.0278V15.8399C11.0369 15.7111 11.0894 15.588 11.1823 15.4989L15.1874 11.6605C15.3701 11.4854 15.6582 11.4854 15.8409 11.6604L18.1442 13.8671Z" fill="#1E2B58"/>
<path fill-rule="evenodd" clip-rule="evenodd" d="M13.1106 1.5C14.2763 1.5001 15.2214 2.4058 15.2214 3.52301V9.57823C15.2214 9.83567 15.1163 10.082 14.9305 10.2601L10.4572 14.5472C10.0855 14.9035 9.87529 15.3961 9.87529 15.9109V16.7396C9.87529 17.2612 9.45245 17.6841 8.93084 17.6841H3.61083C2.44541 17.6838 1.5002 16.778 1.5 15.6611L1.50103 3.52301C1.50104 2.40574 2.44609 1.5 3.61186 1.5H13.1106ZM5.18983 11.9894C4.82556 11.9895 4.53021 12.2725 4.53019 12.6216C4.53019 12.9707 4.82555 13.2538 5.18983 13.2538H8.35607C8.72037 13.2538 9.0157 12.9708 9.0157 12.6216C9.01569 12.2725 8.72036 11.9894 8.35607 11.9894H5.18983ZM5.18983 8.95491C4.82556 8.95494 4.53021 9.23799 4.53019 9.5871C4.53019 9.93623 4.82555 10.2193 5.18983 10.2193H11.5223C11.8866 10.2193 12.1819 9.93625 12.1819 9.5871C12.1819 9.23797 11.8866 8.95491 11.5223 8.95491H5.18983ZM5.18983 5.92039C4.82556 5.92043 4.53021 6.20347 4.53019 6.55259C4.53019 6.90171 4.82555 7.18474 5.18983 7.18478H11.5223C11.8866 7.18478 12.1819 6.90173 12.1819 6.55259C12.1819 6.20345 11.8866 5.92039 11.5223 5.92039H5.18983Z" fill="#1E2B58"/>
<path d="M18.1442 13.8671C18.3382 14.053 18.3382 14.3631 18.1442 14.549L14.1587 18.3687C14.0708 18.453 13.9537 18.5 13.832 18.5H11.5091C11.2483 18.5 11.0369 18.2886 11.0369 18.0278V15.8399C11.0369 15.7111 11.0894 15.588 11.1823 15.4989L15.1874 11.6605C15.3701 11.4854 15.6582 11.4854 15.8409 11.6604L18.1442 13.8671Z" stroke="#1E2B58" stroke-width="0.377778" stroke-linecap="round" stroke-linejoin="round"/>
<path fill-rule="evenodd" clip-rule="evenodd" d="M13.1106 1.5C14.2763 1.5001 15.2214 2.4058 15.2214 3.52301V9.57823C15.2214 9.83567 15.1163 10.082 14.9305 10.2601L10.4572 14.5472C10.0855 14.9035 9.87529 15.3961 9.87529 15.9109V16.7396C9.87529 17.2612 9.45245 17.6841 8.93084 17.6841H3.61083C2.44541 17.6838 1.5002 16.778 1.5 15.6611L1.50103 3.52301C1.50104 2.40574 2.44609 1.5 3.61186 1.5H13.1106ZM5.18983 11.9894C4.82556 11.9895 4.53021 12.2725 4.53019 12.6216C4.53019 12.9707 4.82555 13.2538 5.18983 13.2538H8.35607C8.72037 13.2538 9.0157 12.9708 9.0157 12.6216C9.01569 12.2725 8.72036 11.9894 8.35607 11.9894H5.18983ZM5.18983 8.95491C4.82556 8.95494 4.53021 9.23799 4.53019 9.5871C4.53019 9.93623 4.82555 10.2193 5.18983 10.2193H11.5223C11.8866 10.2193 12.1819 9.93625 12.1819 9.5871C12.1819 9.23797 11.8866 8.95491 11.5223 8.95491H5.18983ZM5.18983 5.92039C4.82556 5.92043 4.53021 6.20347 4.53019 6.55259C4.53019 6.90171 4.82555 7.18474 5.18983 7.18478H11.5223C11.8866 7.18478 12.1819 6.90173 12.1819 6.55259C12.1819 6.20345 11.8866 5.92039 11.5223 5.92039H5.18983Z" stroke="#1E2B58" stroke-width="0.377778" stroke-linecap="round" stroke-linejoin="round"/>
</svg>
