<svg width="20" height="20" viewBox="0 0 20 20" fill="none" xmlns="http://www.w3.org/2000/svg">
<path d="M9.99969 1.04163C14.9471 1.04163 18.9585 5.05223 18.9587 9.99963C18.9587 14.9472 14.9472 18.9586 9.99969 18.9586C5.05229 18.9584 1.04169 14.9471 1.04169 9.99963C1.04186 5.05234 5.0524 1.0418 9.99969 1.04163ZM8.74969 8.54163C8.40467 8.5418 8.12469 8.82156 8.12469 9.16663C8.12472 9.51168 8.40468 9.79145 8.74969 9.79163H9.79169V14.1666C9.79171 14.5118 10.0715 14.7916 10.4167 14.7916C10.7618 14.7916 11.0417 14.5118 11.0417 14.1666V9.16663C11.0417 8.82145 10.7619 8.54164 10.4167 8.54163H8.74969ZM10.4167 5.20862C10.0715 5.20862 9.79169 5.48844 9.79169 5.83362V6.66663C9.79188 7.01164 10.0716 7.29163 10.4167 7.29163C10.7617 7.29161 11.0415 7.01163 11.0417 6.66663V5.83362C11.0417 5.48845 10.7619 5.20863 10.4167 5.20862Z" fill="#1E2B58"/>
</svg>
