<svg width="20" height="20" viewBox="0 0 20 20" fill="none" xmlns="http://www.w3.org/2000/svg">
<path d="M10 1.16663C12.117 1.16663 13.8328 2.88269 13.833 4.99963V9.37463H7.5C7.15493 9.37463 6.87518 9.65461 6.875 9.99963C6.875 10.3448 7.15482 10.6246 7.5 10.6246H13.833V14.9996C13.833 17.1167 12.1171 18.8336 10 18.8336H5.83301C3.71606 18.8334 2 17.1166 2 14.9996V4.99963C2.00018 2.8828 3.71617 1.1668 5.83301 1.16663H10ZM15.3916 7.05725C15.6356 6.81377 16.0314 6.81366 16.2754 7.05725L18.1855 8.96838C18.755 9.53784 18.7549 10.4614 18.1855 11.0309L16.2754 12.942C16.0314 13.1858 15.6357 13.1857 15.3916 12.942C15.1477 12.6979 15.1476 12.3013 15.3916 12.0573L16.8242 10.6246H13.833V9.37463H16.8242L15.3916 7.94202C15.1477 7.69793 15.1476 7.30127 15.3916 7.05725Z" fill="#1E2B58"/>
</svg>
