<svg width="25" height="25" viewBox="0 0 25 25" fill="none" xmlns="http://www.w3.org/2000/svg">
<path d="M21.6601 17.1816C21.1181 16.248 20.3125 13.6064 20.3125 10.1562C20.3125 8.08425 19.4894 6.09711 18.0242 4.63198C16.5591 3.16685 14.572 2.34375 12.5 2.34375C10.428 2.34375 8.44082 3.16685 6.9757 4.63198C5.51057 6.09711 4.68747 8.08425 4.68747 10.1562C4.68747 13.6074 3.88083 16.248 3.33883 17.1816C3.20043 17.419 3.12705 17.6886 3.12611 17.9634C3.12516 18.2381 3.19669 18.5083 3.33346 18.7466C3.47024 18.9849 3.66743 19.1829 3.90515 19.3206C4.14287 19.4584 4.41271 19.5311 4.68747 19.5312H8.67282C8.85306 20.4132 9.33241 21.2059 10.0298 21.7752C10.7272 22.3444 11.5997 22.6554 12.5 22.6554C13.4002 22.6554 14.2728 22.3444 14.9701 21.7752C15.6675 21.2059 16.1469 20.4132 16.3271 19.5312H20.3125C20.5871 19.5309 20.8569 19.4581 21.0944 19.3203C21.332 19.1824 21.5291 18.9844 21.6657 18.7462C21.8024 18.5079 21.8738 18.2378 21.8729 17.9631C21.8719 17.6885 21.7985 17.4189 21.6601 17.1816ZM12.5 21.0938C12.0154 21.0936 11.5428 20.9433 11.1472 20.6635C10.7516 20.3836 10.4525 19.9881 10.291 19.5312H14.709C14.5474 19.9881 14.2483 20.3836 13.8527 20.6635C13.4571 20.9433 12.9845 21.0936 12.5 21.0938ZM4.68747 17.9688C5.43942 16.6758 6.24997 13.6797 6.24997 10.1562C6.24997 8.49865 6.90845 6.90894 8.08055 5.73683C9.25265 4.56473 10.8424 3.90625 12.5 3.90625C14.1576 3.90625 15.7473 4.56473 16.9194 5.73683C18.0915 6.90894 18.75 8.49865 18.75 10.1562C18.75 13.6768 19.5586 16.6729 20.3125 17.9688H4.68747Z" fill="#1E2B58"/>
</svg>
