<svg width="20" height="20" viewBox="0 0 20 20" fill="none" xmlns="http://www.w3.org/2000/svg">
<circle cx="2.5" cy="2.5" r="2.5" transform="matrix(-1 0 0 1 12.5 7.5)" stroke="#1E2B58" stroke-width="1.04167"/>
<path d="M9.99963 1.66663V1.04163H9.99961L9.99963 1.66663ZM13.7496 4.11487L13.4371 4.6561L13.4371 4.65613L13.7496 4.11487ZM16.6666 9.99963L16.0416 9.99955V9.99963H16.6666ZM13.7496 15.8854L13.4371 15.3441L13.437 15.3442L13.7496 15.8854ZM9.99963 18.3336L9.99961 18.9586H9.99963V18.3336ZM6.24963 15.8854L6.56213 15.3441L6.56209 15.3441L6.24963 15.8854ZM3.33362 9.99963H3.95862V9.99955L3.33362 9.99963ZM6.24963 4.11487L6.56202 4.6562L6.56213 4.65613L6.24963 4.11487ZM7.945 1.92249L7.79121 1.31671L7.945 1.92249ZM4.43018 15.6186L4.57368 16.2269L4.43018 15.6186ZM3.67402 15.4212L4.14845 15.0144L3.67402 15.4212ZM7.94489 18.0769L7.79087 18.6826L7.94489 18.0769ZM7.43219 17.4857L6.82321 17.6263L7.43219 17.4857ZM12.5661 17.4863L13.1751 17.627V17.627L12.5661 17.4863ZM12.053 18.0778L11.8993 17.472L12.053 18.0778ZM16.3251 15.4205L16.7995 15.8274L16.3251 15.4205ZM15.5692 15.618L15.4261 16.2264L15.5692 15.618ZM17.868 7.25547L18.4581 7.04971L17.868 7.25547ZM17.5767 8.07191L17.179 7.58974L17.5767 8.07191ZM2.13204 12.7426L1.54181 12.9481L2.13204 12.7426ZM2.42326 11.9265L2.82084 12.4088L2.42326 11.9265ZM16.3252 4.57783L15.8509 4.98482L16.3252 4.57783ZM3.67293 4.57822L3.19843 4.17143L3.67293 4.57822ZM4.42935 4.3809L4.28557 4.98913L4.42935 4.3809ZM12.0529 1.92158L11.8994 2.52744L12.0529 1.92158ZM12.566 2.51305L13.175 2.37249L12.566 2.51305ZM9.99963 1.66663V2.29163C10.6559 2.29163 11.2923 2.37361 11.8994 2.52744L12.0529 1.92158L12.2064 1.31573C11.4999 1.1367 10.7603 1.04163 9.99963 1.04163V1.66663ZM12.566 2.51305L11.957 2.6536C12.1446 3.46614 12.6557 4.20489 13.4371 4.6561L13.7496 4.11487L14.0622 3.57363C13.5945 3.30354 13.2881 2.86269 13.175 2.37249L12.566 2.51305ZM13.7496 4.11487L13.4371 4.65613C14.1548 5.07048 14.9682 5.16482 15.713 4.98885L15.5693 4.3806L15.4256 3.77234C14.9762 3.87852 14.4911 3.82124 14.0621 3.5736L13.7496 4.11487ZM16.3252 4.57783L15.8509 4.98482C16.4707 5.7072 16.9583 6.54482 17.2778 7.46124L17.868 7.25547L18.4581 7.04971C18.0863 5.98334 17.5193 5.0097 16.7995 4.17085L16.3252 4.57783ZM17.5767 8.07191L17.179 7.58974C16.4859 8.1614 16.0417 9.02843 16.0416 9.99955L16.6666 9.99963L17.2916 9.99971C17.2917 9.41798 17.5564 8.89885 17.9744 8.55408L17.5767 8.07191ZM16.6666 9.99963H16.0416C16.0416 10.9711 16.4864 11.8375 17.1794 12.4088L17.5769 11.9265L17.9745 11.4443C17.5563 11.0995 17.2916 10.581 17.2916 9.99963H16.6666ZM17.8681 12.7426L17.278 12.5369C16.9585 13.4534 16.4708 14.2909 15.8508 15.0135L16.3251 15.4205L16.7995 15.8274C17.5192 14.9885 18.0866 14.015 18.4583 12.9483L17.8681 12.7426ZM15.5692 15.618L15.7123 15.0096C14.9671 14.8343 14.154 14.9302 13.4371 15.3441L13.7496 15.8854L14.0621 16.4266C14.4916 16.1787 14.9771 16.1207 15.4261 16.2264L15.5692 15.618ZM13.7496 15.8854L13.437 15.3442C12.6561 15.7952 12.1448 16.5333 11.9571 17.3456L12.5661 17.4863L13.1751 17.627C13.2882 17.1373 13.5945 16.6968 14.0622 16.4266L13.7496 15.8854ZM12.053 18.0778L11.8993 17.472C11.2919 17.6261 10.6556 17.7086 9.99963 17.7086V18.3336V18.9586C10.7608 18.9586 11.5004 18.8628 12.2068 18.6836L12.053 18.0778ZM9.99963 18.3336L9.99966 17.7086C9.3433 17.7086 8.70674 17.6257 8.09891 17.4711L7.94489 18.0769L7.79087 18.6826C8.49758 18.8623 9.23755 18.9586 9.99961 18.9586L9.99963 18.3336ZM7.43219 17.4857L8.04117 17.3451C7.85372 16.5331 7.34338 15.7952 6.56213 15.3441L6.24963 15.8854L5.93713 16.4266C6.40453 16.6965 6.71013 17.1365 6.82321 17.6263L7.43219 17.4857ZM6.24963 15.8854L6.56209 15.3441C5.84488 14.9301 5.03187 14.8346 4.28669 15.0103L4.43018 15.6186L4.57368 16.2269C5.02254 16.1211 5.50766 16.1787 5.93718 16.4267L6.24963 15.8854ZM3.67402 15.4212L4.14845 15.0144C3.5288 14.2918 3.04158 13.4538 2.72226 12.537L2.13204 12.7426L1.54181 12.9481C1.91329 14.0147 2.47985 14.9888 3.19959 15.8281L3.67402 15.4212ZM2.42326 11.9265L2.82084 12.4088C3.51378 11.8375 3.95862 10.9711 3.95862 9.99963H3.33362H2.70862C2.70862 10.5809 2.44393 11.0995 2.02568 11.4443L2.42326 11.9265ZM3.33362 9.99963L3.95862 9.99955C3.95849 9.02844 3.51423 8.16141 2.82117 7.58976L2.42348 8.07192L2.0258 8.55407C2.44386 8.89889 2.70854 9.41806 2.70862 9.99971L3.33362 9.99963ZM2.1322 7.25549L2.7224 7.46113C3.04166 6.5448 3.52839 5.70707 4.14743 4.98501L3.67293 4.57822L3.19843 4.17143C2.47923 5.01033 1.91331 5.98412 1.54199 7.04985L2.1322 7.25549ZM4.42935 4.3809L4.28557 4.98913C5.03083 5.16531 5.84438 5.07033 6.56202 4.6562L6.24963 4.11487L5.93724 3.57354C5.50775 3.82139 5.02233 3.87885 4.57313 3.77266L4.42935 4.3809ZM6.24963 4.11487L6.56213 4.65613C7.34367 4.20491 7.85393 3.46626 8.04126 2.65418L7.43226 2.5137L6.82325 2.37321C6.71017 2.86341 6.40445 3.3038 5.93713 3.5736L6.24963 4.11487ZM7.945 1.92249L8.09879 2.52827C8.70636 2.37403 9.34302 2.29166 9.99966 2.29163L9.99963 1.66663L9.99961 1.04163C9.23803 1.04166 8.4981 1.13725 7.79121 1.31671L7.945 1.92249ZM7.43226 2.5137L8.04126 2.65418C8.05415 2.5983 8.07605 2.55889 8.09304 2.53823C8.10762 2.52048 8.11024 2.52537 8.09879 2.52827L7.945 1.92249L7.79121 1.31671C7.21611 1.46271 6.91872 1.95934 6.82325 2.37321L7.43226 2.5137ZM2.42348 8.07192L2.82117 7.58976C2.77061 7.54806 2.74123 7.50296 2.72944 7.47279C2.71952 7.44741 2.72681 7.44848 2.7224 7.46113L2.1322 7.25549L1.54199 7.04985C1.32104 7.68402 1.66344 8.25519 2.0258 8.55407L2.42348 8.07192ZM4.43018 15.6186L4.28669 15.0103C4.231 15.0235 4.18607 15.0213 4.16007 15.0152C4.13772 15.01 4.14084 15.0055 4.14845 15.0144L3.67402 15.4212L3.19959 15.8281C3.58507 16.2776 4.16076 16.3243 4.57368 16.2269L4.43018 15.6186ZM7.94489 18.0769L8.09891 17.4711C8.11028 17.474 8.10761 17.4789 8.09299 17.4611C8.07598 17.4404 8.05408 17.4009 8.04117 17.3451L7.43219 17.4857L6.82321 17.6263C6.91875 18.0401 7.21608 18.5364 7.79087 18.6826L7.94489 18.0769ZM12.5661 17.4863L11.9571 17.3456C11.9442 17.4016 11.9222 17.4412 11.9052 17.4619C11.8905 17.4797 11.8879 17.4749 11.8993 17.472L12.053 18.0778L12.2068 18.6836C12.7821 18.5375 13.0795 18.0407 13.1751 17.627L12.5661 17.4863ZM16.3251 15.4205L15.8508 15.0135C15.8584 15.0047 15.8614 15.0092 15.839 15.0144C15.813 15.0205 15.7681 15.0227 15.7123 15.0096L15.5692 15.618L15.4261 16.2264C15.8388 16.3235 16.4141 16.2766 16.7995 15.8274L16.3251 15.4205ZM17.868 7.25547L17.2778 7.46124C17.2734 7.44854 17.2807 7.44742 17.2708 7.47277C17.259 7.50293 17.2296 7.54803 17.179 7.58974L17.5767 8.07191L17.9744 8.55408C18.3367 8.25524 18.6793 7.68398 18.4581 7.04971L17.868 7.25547ZM2.13204 12.7426L2.72226 12.537C2.72667 12.5497 2.7194 12.5508 2.72929 12.5255C2.74104 12.4954 2.77036 12.4504 2.82084 12.4088L2.42326 11.9265L2.02568 11.4443C1.66321 11.7431 1.321 12.3141 1.54181 12.9481L2.13204 12.7426ZM15.5693 4.3806L15.713 4.98885C15.7685 4.97573 15.8133 4.9779 15.8392 4.98394C15.8615 4.98913 15.8584 4.99365 15.8509 4.98482L16.3252 4.57783L16.7995 4.17085C16.4141 3.72167 15.8387 3.67474 15.4256 3.77234L15.5693 4.3806ZM3.67293 4.57822L4.14743 4.98501C4.1398 4.9939 4.13665 4.98939 4.15898 4.98419C4.18497 4.97814 4.22989 4.97597 4.28557 4.98913L4.42935 4.3809L4.57313 3.77266C4.16005 3.67501 3.58402 3.72167 3.19843 4.17143L3.67293 4.57822ZM17.5769 11.9265L17.1794 12.4088C17.2299 12.4504 17.2592 12.4954 17.2709 12.5255C17.2808 12.5508 17.2735 12.5496 17.278 12.5369L17.8681 12.7426L18.4583 12.9483C18.6793 12.3142 18.337 11.7431 17.9745 11.4443L17.5769 11.9265ZM12.0529 1.92158L11.8994 2.52744C11.8879 2.52452 11.8905 2.5196 11.9051 2.53738C11.9221 2.55809 11.9441 2.59759 11.957 2.6536L12.566 2.51305L13.175 2.37249C13.0795 1.95867 12.7821 1.46158 12.2064 1.31573L12.0529 1.92158Z" fill="#1E2B58"/>
</svg>
