<svg width="20" height="20" viewBox="0 0 20 20" fill="none" xmlns="http://www.w3.org/2000/svg">
<path d="M10.0002 1.04199C10.7606 1.04204 11.4999 1.13746 12.2062 1.31641C12.7817 1.46232 13.0795 1.95927 13.175 2.37305C13.2882 2.86303 13.5951 3.30422 14.0627 3.57422C14.4914 3.82152 14.9768 3.87858 15.426 3.77246C15.8132 3.68108 16.3426 3.71713 16.7248 4.0918L16.8 4.1709L17.0627 4.49219C17.6582 5.25488 18.133 6.11707 18.4582 7.0498C18.6791 7.68389 18.337 8.25589 17.9748 8.55469C17.5569 8.89944 17.2923 9.41835 17.2922 10C17.2923 10.5812 17.5567 11.0996 17.9748 11.4443C18.3371 11.7431 18.6789 12.3144 18.4582 12.9482C18.0864 14.0148 17.5197 14.9893 16.8 15.8281C16.4147 16.277 15.8387 16.3236 15.426 16.2266C14.9772 16.121 14.4919 16.1791 14.0627 16.4268C13.5951 16.6969 13.2882 17.1374 13.175 17.627C13.0793 18.0405 12.7821 18.5375 12.2072 18.6836C11.501 18.8628 10.7612 18.9589 10.0002 18.959C9.23826 18.959 8.49781 18.8623 7.79121 18.6826C7.21674 18.5365 6.91914 18.0406 6.82343 17.627C6.71039 17.1373 6.40482 16.6966 5.93769 16.4268C5.50817 16.1788 5.02229 16.1217 4.57343 16.2275C4.16062 16.3248 3.58477 16.2772 3.19941 15.8281C2.47988 14.989 1.91361 14.0146 1.54218 12.9482C1.3215 12.3144 1.66318 11.7432 2.02558 11.4443C2.44373 11.0996 2.70906 10.5811 2.70917 10C2.70908 9.41849 2.44348 8.89949 2.02558 8.55469C1.6633 8.25584 1.32145 7.68382 1.54218 7.0498C1.91347 5.98434 2.47942 5.01061 3.19843 4.17188L3.27265 4.0918C3.65516 3.71643 4.18616 3.68189 4.57343 3.77344C5.02247 3.87947 5.50836 3.82195 5.93769 3.57422C6.40464 3.30454 6.71024 2.86385 6.82343 2.37402C6.9189 1.96019 7.21622 1.46344 7.79121 1.31738C8.49809 1.13792 9.23862 1.04203 10.0002 1.04199ZM10.0002 6.97949C8.33183 6.97949 6.97968 8.33164 6.97968 10C6.97968 11.6684 8.33183 13.0205 10.0002 13.0205C11.6685 13.0204 13.0207 11.6683 13.0207 10C13.0207 8.3317 11.6685 6.97959 10.0002 6.97949Z" fill="#1E2B58"/>
</svg>
