<svg width="20" height="22" viewBox="0 0 20 22" fill="none" xmlns="http://www.w3.org/2000/svg">
<path fill-rule="evenodd" clip-rule="evenodd" d="M13.1104 1.31152C14.3727 1.31163 15.4102 2.2944 15.4102 3.52344V10.7266C15.4102 10.8426 15.3899 10.9567 15.3555 11.0664C15.0767 11.0229 14.791 11 14.5 11C11.4624 11 9 13.4624 9 16.5C9 16.9741 9.06006 17.4342 9.17285 17.873H3.61035C2.34851 17.8725 1.31176 16.8897 1.31152 15.6611L1.3125 3.52344C1.31251 2.29436 2.34986 1.31152 3.6123 1.31152H13.1104ZM5.18945 12.1787C4.92203 12.1789 4.71876 12.3849 4.71875 12.6221C4.71901 12.8591 4.92219 13.0642 5.18945 13.0645H8.35645C8.62372 13.0643 8.82689 12.8591 8.82715 12.6221C8.82714 12.3848 8.62387 12.1789 8.35645 12.1787H5.18945ZM5.18945 9.14355C4.92211 9.14378 4.71887 9.3498 4.71875 9.58691C4.71875 9.82411 4.92201 10.03 5.18945 10.0303H11.5225C11.79 10.0302 11.9932 9.82421 11.9932 9.58691C11.993 9.34969 11.7899 9.14363 11.5225 9.14355H5.18945ZM5.18945 6.10938C4.92203 6.1096 4.71876 6.31554 4.71875 6.55273C4.71883 6.78986 4.92207 6.99587 5.18945 6.99609H11.5225C11.79 6.99602 11.9931 6.78997 11.9932 6.55273C11.9932 6.31543 11.79 6.10945 11.5225 6.10938H5.18945Z" fill="#1E2B58"/>
<path fill-rule="evenodd" clip-rule="evenodd" d="M14.5 11.75C17.1234 11.75 19.25 13.8766 19.25 16.5C19.25 19.1234 17.1234 21.25 14.5 21.25C11.8766 21.25 9.75 19.1234 9.75 16.5C9.75 13.8766 11.8766 11.75 14.5 11.75ZM17.3623 14.7754C17.1626 14.5757 16.8384 14.5757 16.6387 14.7754L13.7275 17.6865L12.5889 16.5479C12.3892 16.3484 12.0659 16.3484 11.8662 16.5479C11.6665 16.7476 11.6665 17.0718 11.8662 17.2715L13.3662 18.7715C13.4621 18.867 13.5922 18.9209 13.7275 18.9209C13.8629 18.9208 13.9931 18.8671 14.0889 18.7715L17.3623 15.498C17.5614 15.2985 17.5613 14.975 17.3623 14.7754Z" fill="#1E2B58"/>
</svg>
