<svg width="21" height="22" viewBox="0 0 21 22" fill="none" xmlns="http://www.w3.org/2000/svg">
<path d="M13.1104 1.31152C14.3727 1.31163 15.4102 2.2944 15.4102 3.52344V10.7266C15.4102 10.9408 15.3497 11.1509 15.2354 11.332L11.7158 16.9043C11.3351 17.507 10.6719 17.873 9.95898 17.873H3.61035C2.34851 17.8725 1.31176 16.8897 1.31152 15.6611L1.3125 3.52344C1.31251 2.29436 2.34986 1.31152 3.6123 1.31152H13.1104ZM5.18945 12.1787C4.92203 12.1789 4.71876 12.3849 4.71875 12.6221C4.71901 12.8591 4.92219 13.0642 5.18945 13.0645H8.35645C8.62372 13.0643 8.82689 12.8591 8.82715 12.6221C8.82714 12.3848 8.62387 12.1789 8.35645 12.1787H5.18945ZM5.18945 9.14355C4.92211 9.14378 4.71887 9.3498 4.71875 9.58691C4.71875 9.82411 4.92201 10.03 5.18945 10.0303H11.5225C11.79 10.0302 11.9932 9.82421 11.9932 9.58691C11.993 9.34969 11.7899 9.14363 11.5225 9.14355H5.18945ZM5.18945 6.10938C4.92203 6.1096 4.71876 6.31554 4.71875 6.55273C4.71883 6.78986 4.92207 6.99587 5.18945 6.99609H11.5225C11.79 6.99602 11.9931 6.78997 11.9932 6.55273C11.9932 6.31543 11.79 6.10945 11.5225 6.10938H5.18945Z" fill="#1E2B58"/>
<mask id="path-2-outside-1_576_2405" maskUnits="userSpaceOnUse" x="9" y="10" width="12" height="12" fill="black">
<rect fill="white" x="9" y="10" width="12" height="12"/>
<path d="M15 11C17.7614 11 20 13.2386 20 16C20 18.7614 17.7614 21 15 21C12.2386 21 10 18.7614 10 16C10 13.2386 12.2386 11 15 11ZM17.8623 14.2754C17.6626 14.0757 17.3384 14.0757 17.1387 14.2754L14.2275 17.1865L13.0889 16.0479C12.8892 15.8484 12.5659 15.8484 12.3662 16.0479C12.1666 16.2476 12.1665 16.5718 12.3662 16.7715L13.8662 18.2715C13.9621 18.367 14.0922 18.4209 14.2275 18.4209C14.3629 18.4208 14.4931 18.3671 14.5889 18.2715L17.8623 14.998C18.0614 14.7985 18.0612 14.475 17.8623 14.2754Z"/>
</mask>
<path d="M15 11C17.7614 11 20 13.2386 20 16C20 18.7614 17.7614 21 15 21C12.2386 21 10 18.7614 10 16C10 13.2386 12.2386 11 15 11ZM17.8623 14.2754C17.6626 14.0757 17.3384 14.0757 17.1387 14.2754L14.2275 17.1865L13.0889 16.0479C12.8892 15.8484 12.5659 15.8484 12.3662 16.0479C12.1666 16.2476 12.1665 16.5718 12.3662 16.7715L13.8662 18.2715C13.9621 18.367 14.0922 18.4209 14.2275 18.4209C14.3629 18.4208 14.4931 18.3671 14.5889 18.2715L17.8623 14.998C18.0614 14.7985 18.0612 14.475 17.8623 14.2754Z" fill="#1E2B58"/>
<path d="M15 11V10V10V11ZM20 16H21V16H20ZM15 21V22V22V21ZM10 16H9V16H10ZM17.8623 14.2754L18.5707 13.5696L18.5694 13.5683L17.8623 14.2754ZM17.1387 14.2754L17.8458 14.9825L17.8458 14.9825L17.1387 14.2754ZM14.2275 17.1865L13.5204 17.8936L14.2275 18.6007L14.9346 17.8936L14.2275 17.1865ZM13.0889 16.0479L13.796 15.3407L13.7956 15.3404L13.0889 16.0479ZM12.3662 16.0479L11.6595 15.3404L11.659 15.3408L12.3662 16.0479ZM12.3662 16.7715L11.6591 17.4786H11.6591L12.3662 16.7715ZM13.8662 18.2715L13.1591 18.9786L13.1603 18.9798L13.8662 18.2715ZM14.2275 18.4209L14.2275 19.4209H14.2281L14.2275 18.4209ZM14.5889 18.2715L15.2953 18.9792L15.296 18.9786L14.5889 18.2715ZM17.8623 14.998L18.5694 15.7052L18.5701 15.7045L17.8623 14.998ZM15 11V12C17.2091 12 19 13.7909 19 16H20H21C21 12.6863 18.3137 10 15 10V11ZM20 16H19C19 18.2091 17.2091 20 15 20V21V22C18.3137 22 21 19.3137 21 16H20ZM15 21V20C12.7909 20 11 18.2091 11 16H10H9C9 19.3137 11.6863 22 15 22V21ZM10 16H11C11 13.7909 12.7909 12 15 12V11V10C11.6863 10 9 12.6863 9 16H10ZM17.8623 14.2754L18.5694 13.5683C17.9792 12.9781 17.0218 12.978 16.4316 13.5683L17.1387 14.2754L17.8458 14.9825C17.6549 15.1733 17.346 15.1733 17.1552 14.9825L17.8623 14.2754ZM17.1387 14.2754L16.4316 13.5683L13.5204 16.4794L14.2275 17.1865L14.9346 17.8936L17.8458 14.9825L17.1387 14.2754ZM14.2275 17.1865L14.9346 16.4794L13.796 15.3407L13.0889 16.0479L12.3818 16.755L13.5204 17.8936L14.2275 17.1865ZM13.0889 16.0479L13.7956 15.3404C13.2055 14.7509 12.2496 14.7509 11.6595 15.3404L12.3662 16.0479L13.0729 16.7553C12.8821 16.9459 12.5729 16.9459 12.3821 16.7553L13.0889 16.0479ZM12.3662 16.0479L11.659 15.3408C11.069 15.931 11.0688 16.8883 11.6591 17.4786L12.3662 16.7715L13.0733 16.0644C13.2642 16.2553 13.2641 16.5642 13.0734 16.7549L12.3662 16.0479ZM12.3662 16.7715L11.6591 17.4786L13.1591 18.9786L13.8662 18.2715L14.5733 17.5644L13.0733 16.0644L12.3662 16.7715ZM13.8662 18.2715L13.1603 18.9798C13.4432 19.2617 13.827 19.4209 14.2275 19.4209L14.2275 18.4209L14.2275 17.4209C14.3574 17.4209 14.4809 17.4723 14.5721 17.5632L13.8662 18.2715ZM14.2275 18.4209L14.2281 19.4209C14.6273 19.4207 15.0116 19.2625 15.2953 18.9792L14.5889 18.2715L13.8824 17.5637C13.9746 17.4717 14.0985 17.421 14.227 17.4209L14.2275 18.4209ZM14.5889 18.2715L15.296 18.9786L18.5694 15.7052L17.8623 14.998L17.1552 14.2909L13.8818 17.5644L14.5889 18.2715ZM17.8623 14.998L18.5701 15.7045C19.1594 15.114 19.1578 14.1588 18.5707 13.5696L17.8623 14.2754L17.1539 14.9812C16.9646 14.7912 16.9634 14.4831 17.1545 14.2916L17.8623 14.998Z" fill="#999A9F" mask="url(#path-2-outside-1_576_2405)"/>
</svg>
